<?xml version="1.0" encoding="UTF-8"?><svg id="Layer_1" xmlns="http://www.w3.org/2000/svg" viewBox="0 0 713.57 203"><defs><style>.cls-1{fill:#0d1d26;}.cls-1,.cls-2,.cls-3,.cls-4{stroke-width:0px;}.cls-2{fill:#09d2c6;}.cls-3{fill:#1e62e5;}.cls-4{fill:#14a4f6;}</style></defs><path class="cls-1" d="M194.82,145.05V0h-32.19v147.11c0,29.44,23.86,53.3,53.3,53.3h14.19v-32.19h-12.13c-12.8,0-23.17-10.37-23.17-23.17Z"/><path class="cls-1" d="M681.38,0v58.44c-13.4-10.04-30.05-15.99-48.08-15.99-44.33,0-80.27,35.94-80.27,80.27s35.94,80.27,80.27,80.27,80.27-35.94,80.27-80.27V0S681.38,0,681.38,0ZM633.29,170.81c-26.56,0-48.09-21.53-48.09-48.08s21.53-48.09,48.09-48.09,48,21.45,48.08,47.93v.15h0c0,26.56-21.53,48.08-48.09,48.08Z"/><path class="cls-1" d="M80.27,74.64c15.08,0,28.53,6.95,37.35,17.81l22.83-22.83c-14.71-16.65-36.21-27.17-60.17-27.17C35.94,42.45,0,78.39,0,122.73s35.94,80.27,80.27,80.27c23.96,0,45.46-10.52,60.17-27.17l-22.83-22.83c-8.82,10.86-22.27,17.81-37.35,17.81-26.56,0-48.09-21.53-48.09-48.09s21.53-48.09,48.09-48.09Z"/><path class="cls-1" d="M539.02,74.32c2.91-3.39,4.69-7.78,4.69-12.6,0-10.68-8.66-19.34-19.34-19.34h-109.08v32.19h77.21c.87,0,1.34,1.02.77,1.68,0,0-79.29,92.16-79.33,92.21-2.91,3.39-4.69,7.78-4.69,12.6,0,10.68,8.66,19.34,19.34,19.34.02,0,.03,0,.05,0h0s109.03,0,109.03,0v-32.19h-77.09c-.87,0-1.34-1.02-.77-1.68,0,0,79.17-92.17,79.2-92.21Z"/><path class="cls-2" d="M330.82,85.09c6.62-12.79,10.59-26.14,12.57-37.17.19-1.08-.46-2.12-1.51-2.43-13.31-3.9-28.69-4.12-42.22-.64-1.7.44-2.16,2.63-.79,3.73,11.12,8.88,21.59,22.21,28.12,36.45.74,1.61,3.01,1.64,3.82.07Z"/><path class="cls-2" d="M308.4,160.29c-6.62,12.79-10.59,26.14-12.57,37.17-.19,1.08.46,2.12,1.51,2.43,13.31,3.9,28.69,4.12,42.22.64,1.7-.44,2.16-2.63.79-3.73-11.12-8.88-21.59-22.21-28.12-36.45-.74-1.61-3.01-1.64-3.82-.07Z"/><path class="cls-3" d="M282.01,111.48c-12.79-6.62-26.14-10.59-37.17-12.57-1.08-.19-2.12.46-2.43,1.51-3.9,13.31-4.12,28.69-.64,42.22.44,1.7,2.63,2.16,3.73.79,8.88-11.12,22.21-21.59,36.45-28.12,1.61-.74,1.64-3.01.07-3.82Z"/><path class="cls-3" d="M357.21,133.89c12.79,6.62,26.14,10.59,37.17,12.57,1.08.19,2.12-.46,2.43-1.51,3.9-13.31,4.12-28.69.64-42.22-.44-1.7-2.63-2.16-3.73-.79-8.88,11.12-22.21,21.59-36.45,28.12-1.61.74-1.64,3.01-.07,3.82Z"/><path class="cls-4" d="M300.95,88.17c-4.37-13.72-10.99-25.97-17.4-35.18-.63-.9-1.83-1.17-2.79-.65-12.17,6.65-23.19,17.37-30.3,29.4-.89,1.51.33,3.39,2.08,3.19,14.14-1.59,30.97.44,45.66,5.89,1.66.62,3.29-.97,2.75-2.66Z"/><path class="cls-4" d="M338.27,157.2c4.37,13.72,10.99,25.97,17.4,35.18.63.9,1.83,1.17,2.79.65,12.17-6.65,23.19-17.37,30.3-29.4.89-1.51-.33-3.39-2.08-3.19-14.14,1.59-30.97-.44-45.66-5.89-1.66-.62-3.29.97-2.75,2.66Z"/><path class="cls-4" d="M285.1,141.35c-13.72,4.37-25.97,10.99-35.18,17.4-.9.63-1.17,1.83-.65,2.79,6.65,12.17,17.37,23.19,29.4,30.3,1.51.89,3.39-.33,3.19-2.08-1.59-14.14.44-30.97,5.89-45.66.62-1.66-.97-3.29-2.66-2.75Z"/><path class="cls-4" d="M354.12,104.02c13.72-4.37,25.97-10.99,35.18-17.4.9-.63,1.17-1.83.65-2.79-6.65-12.17-17.37-23.19-29.4-30.3-1.51-.89-3.39.33-3.19,2.08,1.59,14.14-.44,30.97-5.89,45.66-.62,1.66.97,3.29,2.66,2.75Z"/></svg>