<?xml version="1.0" encoding="UTF-8"?><svg id="Layer_1" xmlns="http://www.w3.org/2000/svg" viewBox="0 0 713.57 616.75"><defs><style>.cls-1{fill:#0d1d26;}.cls-1,.cls-2,.cls-3,.cls-4{stroke-width:0px;}.cls-2{fill:#09d2c6;}.cls-3{fill:#1e62e5;}.cls-4{fill:#14a4f6;}</style></defs><path class="cls-1" d="M194.82,558.79v-145.05h-32.19v147.11c0,29.44,23.86,53.3,53.3,53.3h14.19v-32.19h-12.13c-12.8,0-23.17-10.37-23.17-23.17Z"/><path class="cls-1" d="M681.38,413.74v58.44c-13.4-10.04-30.05-15.99-48.08-15.99-44.33,0-80.27,35.94-80.27,80.27s35.94,80.27,80.27,80.27,80.27-35.94,80.27-80.27v-122.73s-32.19,0-32.19,0ZM633.29,584.56c-26.56,0-48.09-21.53-48.09-48.08s21.53-48.09,48.09-48.09,48,21.45,48.08,47.93v.15h0c0,26.56-21.53,48.08-48.09,48.08Z"/><path class="cls-1" d="M319.61,456.2c-44.33,0-80.27,35.94-80.27,80.27s35.94,80.27,80.27,80.27,80.27-35.94,80.27-80.27-35.94-80.27-80.27-80.27ZM319.61,584.56c-26.56,0-48.09-21.53-48.09-48.09s21.53-48.09,48.09-48.09,48.09,21.53,48.09,48.09-21.53,48.09-48.09,48.09Z"/><path class="cls-1" d="M80.27,488.39c15.08,0,28.53,6.95,37.35,17.81l22.83-22.83c-14.71-16.65-36.21-27.17-60.17-27.17-44.33,0-80.27,35.94-80.27,80.27s35.94,80.27,80.27,80.27c23.96,0,45.46-10.52,60.17-27.17l-22.83-22.83c-8.82,10.86-22.27,17.81-37.35,17.81-26.56,0-48.09-21.53-48.09-48.09s21.53-48.09,48.09-48.09Z"/><path class="cls-1" d="M539.02,488.07c2.91-3.39,4.69-7.78,4.69-12.6,0-10.68-8.66-19.34-19.34-19.34h-109.08v32.19h77.21c.87,0,1.34,1.02.77,1.68,0,0-79.29,92.16-79.33,92.21-2.91,3.39-4.69,7.78-4.69,12.6,0,10.68,8.66,19.34,19.34,19.34.02,0,.03,0,.05,0h0s109.03,0,109.03,0v-32.19h-77.09c-.87,0-1.34-1.02-.77-1.68,0,0,79.17-92.17,79.2-92.21Z"/><path class="cls-2" d="M383.17,99.93c15.49-29.93,24.79-61.17,29.42-86.99.45-2.53-1.08-4.97-3.54-5.69-31.14-9.13-67.13-9.63-98.8-1.49-3.99,1.02-5.06,6.16-1.84,8.73,26.03,20.77,50.52,51.98,65.81,85.29,1.73,3.77,7.04,3.84,8.95.15Z"/><path class="cls-2" d="M330.72,275.91c-15.49,29.93-24.79,61.17-29.42,86.99-.45,2.53,1.08,4.97,3.54,5.69,31.14,9.13,67.13,9.63,98.8,1.49,3.99-1.02,5.06-6.16,1.84-8.73-26.03-20.77-50.52-51.98-65.81-85.29-1.73-3.77-7.04-3.84-8.95-.15Z"/><path class="cls-3" d="M268.96,161.69c-29.93-15.49-61.17-24.79-86.99-29.42-2.53-.45-4.97,1.08-5.69,3.54-9.13,31.14-9.63,67.13-1.49,98.8,1.02,3.99,6.16,5.06,8.73,1.84,20.77-26.03,51.98-50.52,85.29-65.81,3.77-1.73,3.84-7.04.15-8.95Z"/><path class="cls-3" d="M444.94,214.14c29.93,15.49,61.17,24.79,86.99,29.42,2.53.45,4.97-1.08,5.69-3.54,9.13-31.14,9.63-67.13,1.49-98.8-1.02-3.99-6.16-5.06-8.73-1.84-20.77,26.03-51.98,50.52-85.29,65.81-3.77,1.73-3.84,7.04-.15,8.95Z"/><path class="cls-4" d="M313.27,107.15c-10.22-32.12-25.72-60.78-40.71-82.32-1.47-2.11-4.27-2.75-6.53-1.52-28.48,15.56-54.28,40.66-70.91,68.81-2.09,3.54.78,7.93,4.87,7.47,33.09-3.72,72.48,1.03,106.85,13.77,3.89,1.44,7.69-2.27,6.43-6.22Z"/><path class="cls-4" d="M400.62,268.68c10.22,32.12,25.72,60.78,40.71,82.32,1.47,2.11,4.27,2.75,6.53,1.52,28.48-15.56,54.28-40.66,70.91-68.81,2.09-3.54-.78-7.93-4.87-7.47-33.09,3.72-72.48-1.03-106.85-13.77-3.89-1.44-7.69,2.27-6.43,6.22Z"/><path class="cls-4" d="M276.19,231.59c-32.12,10.22-60.78,25.72-82.32,40.71-2.11,1.47-2.75,4.27-1.52,6.53,15.56,28.48,40.66,54.28,68.81,70.91,3.54,2.09,7.93-.78,7.47-4.87-3.72-33.09,1.03-72.48,13.77-106.85,1.44-3.89-2.27-7.69-6.22-6.43Z"/><path class="cls-4" d="M437.71,144.24c32.12-10.22,60.78-25.72,82.32-40.71,2.11-1.47,2.75-4.27,1.52-6.53-15.56-28.48-40.66-54.28-68.81-70.91-3.54-2.09-7.93.78-7.47,4.87,3.72,33.09-1.03,72.48-13.77,106.85-1.44,3.89,2.27,7.69,6.22,6.43Z"/></svg>